PathFileType	4	(X/Y/Z)	RBDS025\RBDS025runT45.trc
DataRate	CameraRate	NumFrames	NumMarkers	Units	OrigDataRate	OrigDataStartFrame	OrigNumFrames
150.000000	150.000000	4	33	mm	150.000000	2812	4500
Frame#	Time	L.ASIS			L.Heel.Bottom			L.Heel.Lateral			L.Heel.Top			L.Iliac.Crest			L.MT1			L.MT5			L.PSIS			L.Shank.Bottom.Lateral			L.Shank.Bottom.Medial			L.Shank.Top.Lateral			L.Shank.Top.Medial			L.Thigh.Bottom.Lateral			L.Thigh.Bottom.Medial			L.Thigh.Top.Lateral			L.Thigh.Top.Medial			R.ASIS			R.ASY			R.Heel.Bottom			R.Heel.Lateral			R.Heel.Top			R.Iliac.Crest			R.MT1			R.MT5			R.PSIS			R.Shank.Bottom.Lateral			R.Shank.Bottom.Medial			R.Shank.Top.Lateral			R.Shank.Top.Medial			R.Thigh.Bottom.Lateral			R.Thigh.Bottom.Medial			R.Thigh.Top.Lateral			R.Thigh.Top.Medial			
		X1	Y1	Z1	X2	Y2	Z2	X3	Y3	Z3	X4	Y4	Z4	X5	Y5	Z5	X6	Y6	Z6	X7	Y7	Z7	X8	Y8	Z8	X9	Y9	Z9	X10	Y10	Z10	X11	Y11	Z11	X12	Y12	Z12	X13	Y13	Z13	X14	Y14	Z14	X15	Y15	Z15	X16	Y16	Z16	X17	Y17	Z17	X18	Y18	Z18	X19	Y19	Z19	X20	Y20	Z20	X21	Y21	Z21	X22	Y22	Z22	X23	Y23	Z23	X24	Y24	Z24	X25	Y25	Z25	X26	Y26	Z26	X27	Y27	Z27	X28	Y28	Z28	X29	Y29	Z29	X30	Y30	Z30	X31	Y31	Z31	X32	Y32	Z32	X33	Y33	Z33	

2813	18.74666666666667	2054.329384608442	876.325187582169	866.24206185158	1776.306661769439	42.91411469634767	962.3842821166185	1800.430743847272	65.09350892116289	917.4354336742573	1792.45158948783	85.11502906101116	965.9034281582899	1968.85190769413	948.3591505339816	822.6005866323142	1989.359614842911	34.55374690769636	969.9373011039321	1943.026054245518	44.26072115628489	863.8956489664564	1902.002955528232	942.8664603460509	936.9520616837468	1916.09822504329	159.7240070245476	894.4525370067345	1872.09552261291	190.3176289479632	911.1374224116988	1951.783581277756	227.4575318837681	868.5253408106545	1908.990349103105	257.4186640558785	883.1304110342526	2036.919432830322	537.4824266167848	814.797739414638	1978.672116293347	518.3833871228428	853.4079323346582	1994.571089624814	636.8997819904135	800.3374011398577	1940.368177333307	620.1114029938636	840.0702449024728	2079.41795634729	857.0002117782785	1063.268494475482	1651.509327037202	295.890474859538	1055.199629808904	1632.597077420001	482.9166576211674	1017.74740950346	1649.723731516658	459.4770373456911	1062.61283345963	1673.987189038718	465.6069393989781	1020.288489880768	2034.557635684384	919.5531750446802	1115.051245689362	1606.053288841852	270.2047446284803	1013.730214579036	1603.511568461503	316.8867039765278	1116.106965763191	1917.739804280738	928.7912196901806	1037.788119184564	1778.461835238532	413.4124478264905	1087.607481963081	1779.403408577555	450.8308771301577	1052.244713477278	1862.852697450116	420.7611938057872	1094.869870702704	1859.54982705192	460.2945319906106	1059.377911648689	2054.687941159153	495.3099458529464	1120.695095794431	1995.285891065098	480.8698103131931	1084.082938264767	2018.68840729751	598.8083693150909	1137.765741778399	1960.519189457742	583.1251069209229	1105.848154479642	
2814	18.75333333333333	2053.110115753695	877.4034552635571	865.8546477181484	1746.302958892011	46.7588416626666	962.2451522985483	1770.795017965248	68.22338520025956	917.1104525817605	1762.914796421517	88.8209014884259	965.340116992396	1968.434979293202	950.3811180423442	822.1094037064124	1958.552692462467	34.67465255342165	969.9832243462986	1912.808716299374	44.37532054328404	863.8541491782952	1901.533667208707	945.6966652057914	936.1752684006402	1888.748927974267	161.4724590205821	894.3572231327547	1845.557407176749	193.2332471666315	910.9270063388014	1926.338691403747	228.1613687945078	868.7157896044242	1884.302890840814	259.2686581875737	883.1152965091687	2023.031224339497	536.0195903707488	815.7916977361215	1963.37630939278	519.4722144857519	853.5595144159266	1985.151837415918	637.2904905334251	801.0162802186417	1929.891984825497	622.921944122058	840.317924946188	2078.281420191601	860.3443837412599	1063.311011655136	1677.831241768694	283.0823013679255	1054.432406293675	1646.449428526073	468.7365158164991	1018.576767994469	1665.497989956274	446.1014677044313	1063.159431836966	1688.993691485949	454.137395545337	1020.697981507817	2031.320860567058	922.6639893939664	1115.369371072411	1633.878035166113	254.9210903186472	1012.98605098477	1629.117505663666	300.2971992879624	1115.746231262035	1916.643305682631	931.9718696819434	1037.119858325286	1797.297359826045	407.0127753517314	1087.136726833248	1796.290907301535	444.6104340398669	1052.043175891787	1881.07215176258	418.6831429426667	1094.574647993137	1875.803890720854	457.9833424951436	1059.099604978609	2069.622700680983	502.9200004645181	1120.905158713172	2010.920286063285	485.229402888938	1084.433062617082	2028.305306102936	604.5210662084863	1137.763825646587	1970.681420595521	585.4436626759914	1106.398726944949	
2815	18.76	2052.257971778117	878.8249317849221	865.5156470651364	1716.439476625219	51.61630311856167	962.0489697129889	1741.362576065748	72.06973167495596	916.6828412252891	1733.764406222192	93.44968103270119	964.6075553061474	1968.801385840566	953.0083151315775	821.8013748936274	1927.682499167986	34.57038258264211	970.0609175189392	1882.593443045361	44.29514087270367	863.7495318403894	1901.466892948859	948.9138221264097	935.4911473048206	1861.433640160828	163.9551249430554	893.9460360950727	1819.051435059473	196.7243828260882	910.5784706946521	1900.688912266399	229.689322270268	868.5839574639874	1859.367187335737	261.7989435373206	882.9116361887141	2008.841031983351	535.4464304721885	816.6121693411495	1947.847972800829	521.5665639494797	853.4881540615487	1975.681471903983	638.4245280872021	801.6276459630294	1919.386301890632	626.5928632955249	840.4293505379605	2077.509034765445	864.2219028462772	1063.359011520227	1704.871812114407	269.6496241394349	1053.824425068106	1660.211126006027	452.7240805527348	1018.818913457581	1681.047909011253	431.2784613875211	1063.231813227372	1703.75100914244	441.2213179112279	1020.647466070881	2028.626164559576	926.3220046319216	1115.700042480972	1662.978547418167	238.686780552664	1012.329208021031	1655.400943309244	282.8888150139251	1115.215333455242	1915.945821341658	935.6752289507692	1036.583325348037	1815.735198154402	400.2279963403047	1086.531278230009	1812.540421931332	437.8531601353798	1051.648407105679	1898.562984685746	416.7664092771136	1094.156189357237	1891.093047320069	455.6739960041709	1058.667231402488	2083.690946827647	511.8995956576912	1121.007981665903	2025.891937398555	491.1940803461807	1084.517274795022	2037.364593194101	611.3819792858735	1137.76894310067	1980.484936696626	589.1528890983342	1106.726513602473	
2816	18.76666666666667	2051.815110879333	880.5682870236857	865.2492395681545	1686.926491460141	57.61105291151519	961.7792196963636	1712.312116965931	76.73426552840122	916.1354536966634	1705.220846471003	99.08066760497231	963.6850728872701	1969.951791854313	956.159356002304	821.6958971116673	1896.820632102841	34.31613540146621	970.1382136041296	1852.429710478898	44.10193510496992	863.5645485336707	1901.824731318305	952.4479829345819	934.9281871273387	1834.333301806623	167.271504016016	893.1612004641637	1792.767965752883	200.8808154889684	910.0752890563643	1875.020274945265	232.1721943922459	868.0786436250369	1834.378308489287	265.1316797647478	882.5093058392428	1994.505382536352	535.8573867531259	817.1951700222135	1932.305799229441	524.745880610477	853.1837923294485	1966.266444110953	640.3476503660684	802.1302891258891	1909.006396686859	631.1474433582569	840.3988659048376	2077.124553629514	868.5850904918177	1063.398916325454	1732.693437190098	255.8174797240481	1053.377519855088	1674.190157579663	434.9163463518138	1018.427918156463	1696.635677582731	415.0490866814657	1062.78868393908	1718.496763216731	426.8596656417602	1020.084098784135	2026.607785098017	930.5420640248485	1116.041146715769	1693.43040510923	221.8225447195148	1011.800510815389	1682.496894078331	264.9358464836235	1114.562029319816	1915.666784453628	939.8529290428075	1036.207101047851	1833.847352650372	393.0446006870121	1085.763931033988	1828.276771986808	430.4951790027804	1051.010999083268	1915.331102082336	414.8877338139807	1093.579207353974	1905.477445180328	453.2042267740634	1058.034772125568	2096.741565119478	521.9869236089253	1121.010261901655	2039.997875980002	498.5557068669589	1084.359079050301	2045.787403214628	619.1815070367516	1137.818933590622	1989.809735417732	594.1194480028679	1106.853068579632	
